<svg xmlns="http://www.w3.org/2000/svg" width="24" height="24" viewBox="0 0 24 24" fill="none" stroke="#6dacf0" stroke-width="1.2" stroke-linecap="round" stroke-linejoin="round">
  <circle cx="12" cy="12" r="11.15"/>

  <!-- Brain shape -->
  <path d="M12 6c-1.5 0-2.8.8-3.4 2-.8-.2-1.6 0-2.2.5s-.9 1.4-.7 2.2c-.8.6-1.2 1.5-1.2 2.5 0 1.2.7 2.3 1.8 2.8.1 1.2 1.1 2.2 2.3 2.2.5 0 1-.2 1.4-.5"/>
  <path d="M12 6c1.5 0 2.8.8 3.4 2 .8-.2 1.6 0 2.2.5s.9 1.4.7 2.2c.8.6 1.2 1.5 1.2 2.5 0 1.2-.7 2.3-1.8 2.8-.1 1.2-1.1 2.2-2.3 2.2-.5 0-1-.2-1.4-.5"/>
  <line x1="12" y1="6" x2="12" y2="18"/>

</svg>
