<svg xmlns="http://www.w3.org/2000/svg" width="24" height="24" viewBox="0 0 24 24" fill="none" stroke="#8b7cf6" stroke-width="1.5" stroke-linecap="round" stroke-linejoin="round">
  <circle cx="12" cy="12" r="11.15" stroke-width="1.7"/>

  <!-- Left face profile looking right -->
  <path d="M4.5 8.5 A3.5 3.5 0 0 1 8 5 A3.5 3.5 0 0 1 8 12" fill="none"/>
  <path d="M8 12 L9.5 10.5 L9.5 9 L8.5 8" fill="none"/>
  <circle cx="7" cy="8.5" r="0.5" fill="#8b7cf6" stroke="none"/>

  <!-- Right face profile looking left -->
  <path d="M19.5 8.5 A3.5 3.5 0 0 0 16 5 A3.5 3.5 0 0 0 16 12" fill="none"/>
  <path d="M16 12 L14.5 10.5 L14.5 9 L15.5 8" fill="none"/>
  <circle cx="17" cy="8.5" r="0.5" fill="#8b7cf6" stroke="none"/>

  <!-- Speech bubbles / dialogue -->
  <line x1="10" y1="15" x2="14" y2="15"/>
  <line x1="9.5" y1="16.5" x2="14.5" y2="16.5"/>
  <line x1="10" y1="18" x2="14" y2="18"/>

</svg>
